<?xml version="1.0" standalone="no"?>
<!DOCTYPE svg PUBLIC "-//W3C//DTD SVG 20010904//EN"
 "http://www.w3.org/TR/2001/REC-SVG-20010904/DTD/svg10.dtd">
<svg version="1.0" xmlns="http://www.w3.org/2000/svg"
 width="192.000000pt" height="192.000000pt" viewBox="0 0 192.000000 192.000000"
 preserveAspectRatio="xMidYMid meet">
<metadata>
Created by potrace 1.11, written by Peter Selinger 2001-2013
</metadata>
<g transform="translate(0.000000,192.000000) scale(0.100000,-0.100000)"
fill="#000000" stroke="none">
<path d="M435 1866 c-11 -7 -49 -31 -85 -54 -100 -63 -196 -161 -257 -264 -73
-120 -75 -104 32 -212 l95 -94 -15 -36 c-33 -78 -56 -208 -56 -306 1 -180 52
-344 149 -486 81 -119 184 -210 314 -279 494 -260 1103 13 1239 557 51 204 22
432 -78 617 -107 198 -288 349 -498 415 -167 53 -321 53 -520 2 -5 -1 -27 -8
-49 -15 l-38 -13 -92 91 c-50 50 -98 91 -106 90 -8 0 -24 -6 -35 -13z"/>
</g>
</svg>
